<?xml version="1.0" encoding="utf-8"?>
<!-- Generator: Adobe Illustrator 19.0.0, SVG Export Plug-In . SVG Version: 6.00 Build 0)  -->
<svg version="1.1" id="Layer_1" xmlns="http://www.w3.org/2000/svg" xmlns:xlink="http://www.w3.org/1999/xlink" x="0px" y="0px"
	 viewBox="0 0 96 96" style="enable-background:new 0 0 96 96;" xml:space="preserve">
<style type="text/css">
	.st0{fill:#333333;}
</style>
<g id="XMLID_1_">
	<path id="XMLID_3_" class="st0" d="M21,41.1H75c1.9,0,3.4-1.5,3.4-3.4v-4.6c0-1.3-0.8-2.5-2-3.1l-27-12c-0.9-0.4-1.9-0.4-2.7,0
		l-27,12c-1.2,0.5-2,1.8-2,3.1v4.6C17.6,39.6,19.1,41.1,21,41.1z"/>
	<path id="XMLID_4_" class="st0" d="M80.3,73.8l-1.1-3.4c-0.5-1.4-1.8-2.3-3.2-2.3h-4.3V44.5h-6.8v23.7h-6.8V44.5h-6.8v23.7h-6.8
		V44.5h-6.8v23.7h-6.8V44.5h-6.8v23.7H20c-1.5,0-2.7,0.9-3.2,2.3l-1.1,3.4c-0.3,1-0.2,2.2,0.5,3c0.6,0.9,1.7,1.4,2.7,1.4h58.2
		c1.1,0,2.1-0.5,2.7-1.4C80.5,76,80.7,74.9,80.3,73.8z"/>
</g>
</svg>
